{"glyphs":{" ":{"ha":694,"x_min":0,"x_max":0,"o":""},"A":{"ha":1528,"x_min":69,"x_max":1458,"o":"m 1458 417 q 1255 908 1458 704 q 764 1111 1051 1111 q 273 908 476 1111 q 69 417 69 704 q 273 -74 69 129 q 764 -278 476 -278 q 1255 -74 1051 -278 q 1458 417 1458 129 m 376 417 q 490 691 376 578 q 764 804 603 804 q 1038 691 925 804 q 1151 417 1151 578 q 1038 142 1151 256 q 764 29 925 29 q 490 142 603 29 q 376 417 376 256 z "},"B":{"ha":1528,"x_min":69,"x_max":1458,"o":"m 1458 417 q 1255 908 1458 704 q 764 1111 1051 1111 q 273 908 476 1111 q 69 417 69 704 q 273 -74 69 129 q 764 -278 476 -278 q 1255 -74 1051 -278 q 1458 417 1458 129 m 247 417 q 399 782 247 631 q 764 933 550 933 q 1129 782 978 933 q 1281 417 1281 631 q 1129 51 1281 203 q 764 -100 978 -100 q 399 51 550 -100 q 247 417 247 203 m 1111 417 q 1010 663 1111 561 q 764 764 908 764 q 518 663 619 764 q 417 417 417 561 q 518 171 417 272 q 764 69 619 69 q 1010 171 908 69 q 1111 417 1111 272 z "},"C":{"ha":1528,"x_min":69,"x_max":1458,"o":"m 1256 908 q 1028 1059 1156 1007 q 764 1111 900 1111 q 500 1060 626 1111 q 274 909 374 1010 q 122 681 174 808 q 69 417 69 553 q 120 153 69 279 q 272 -75 171 26 q 499 -227 374 -176 q 764 -278 625 -278 q 1027 -227 900 -278 q 1256 -75 1154 -176 q 1408 152 1357 26 q 1458 417 1458 278 q 1408 680 1458 553 q 1256 908 1357 807 m 1031 -93 l 799 382 l 1274 150 l 1031 -93 m 254 150 l 729 382 l 497 -93 l 254 150 m 799 451 l 1031 926 l 1274 683 l 799 451 m 254 683 l 497 926 l 729 451 l 254 683 z "},"D":{"ha":1528,"x_min":69,"x_max":1458,"o":"m 1256 908 q 1028 1059 1156 1007 q 764 1111 900 1111 q 500 1060 626 1111 q 274 909 374 1010 q 122 681 174 808 q 69 417 69 553 q 120 153 69 279 q 272 -75 171 26 q 499 -227 374 -176 q 764 -278 625 -278 q 1027 -227 900 -278 q 1256 -75 1154 -176 q 1408 152 1357 26 q 1458 417 1458 278 q 1408 680 1458 553 q 1256 908 1357 807 m 886 -18 q 822 138 822 46 q 886 294 822 229 q 960 342 918 325 q 1043 358 1001 358 q 1199 292 1135 358 q 1264 135 1264 226 q 1200 -19 1264 44 q 1044 -83 1136 -83 q 886 -18 954 -83 m 328 -19 q 264 136 264 44 q 328 292 264 226 q 485 358 393 358 q 642 294 578 358 q 689 222 672 264 q 706 138 706 181 q 640 -19 706 46 q 482 -83 574 -83 q 328 -19 392 -83 m 886 539 q 839 611 856 569 q 822 696 822 653 q 888 852 822 788 q 1046 917 954 917 q 1200 853 1136 917 q 1264 697 1264 789 q 1199 541 1264 607 q 1043 475 1135 475 q 886 539 950 475 m 329 539 q 264 699 264 607 q 328 853 264 789 q 483 917 392 917 q 640 852 574 917 q 706 696 706 788 q 642 539 706 603 q 569 492 611 508 q 485 475 528 475 q 329 539 393 475 z "},"E":{"ha":1528,"x_min":57,"x_max":1447,"o":"m 753 1088 q 260 884 464 1088 q 57 392 57 681 q 260 -99 57 104 q 753 -303 464 -303 q 1244 -99 1040 -303 q 1447 392 1447 104 q 1244 884 1447 681 q 753 1088 1040 1088 m 1094 551 q 983 469 1042 499 q 878 439 925 439 q 812 463 835 439 q 789 529 789 486 q 900 744 789 633 q 1010 827 953 797 q 1115 857 1067 857 q 1182 832 1157 857 q 1207 764 1207 807 q 1178 661 1207 717 q 1094 551 1149 606 m 1182 -49 q 1115 -72 1158 -72 q 900 40 1013 -72 q 788 257 788 153 q 811 322 788 296 q 876 346 838 346 q 982 317 925 346 q 1094 233 1039 288 q 1207 17 1207 121 q 1206 3 1206 7 q 1182 -49 1201 -28 m 604 40 q 494 -42 551 -12 q 389 -72 438 -72 q 323 -48 347 -72 q 299 18 299 -24 q 412 233 299 119 q 628 346 525 346 q 692 322 668 346 q 717 253 717 297 q 687 149 717 206 q 604 40 657 93 m 692 463 q 626 439 668 439 q 521 469 579 439 q 410 551 463 499 q 299 767 299 665 q 323 833 299 808 q 389 857 347 857 q 494 827 438 857 q 604 744 551 797 q 717 532 717 632 q 692 463 717 488 z "},"F":{"ha":1528,"x_min":69,"x_max":1458,"o":"m 1256 908 q 1028 1059 1156 1007 q 764 1111 900 1111 q 500 1060 626 1111 q 274 909 374 1010 q 122 681 174 808 q 69 417 69 553 q 120 153 69 279 q 272 -75 171 26 q 499 -227 374 -176 q 764 -278 625 -278 q 1027 -227 900 -278 q 1256 -75 1154 -176 q 1408 152 1357 26 q 1458 417 1458 278 q 1408 680 1458 553 q 1256 908 1357 807 m 1014 -96 l 764 153 l 1028 417 l 1276 167 l 1014 -96 m 514 -96 l 251 167 l 500 417 l 764 153 l 514 -96 m 1028 417 l 764 681 l 1014 929 l 1276 667 l 1028 417 m 500 417 l 251 667 l 514 929 l 764 681 l 500 417 z "},"G":{"ha":1528,"x_min":69,"x_max":1458,"o":"m 1256 908 q 1028 1059 1156 1007 q 764 1111 900 1111 q 500 1060 626 1111 q 274 909 374 1010 q 122 681 174 808 q 69 417 69 553 q 120 153 69 279 q 272 -75 171 26 q 499 -227 374 -176 q 764 -278 625 -278 q 1027 -227 900 -278 q 1256 -75 1154 -176 q 1408 152 1357 26 q 1458 417 1458 278 q 1408 680 1458 553 q 1256 908 1357 807 m 1124 -47 q 1086 -58 1113 -58 q 979 -22 1036 -58 l 764 114 l 549 -22 q 440 -58 489 -58 q 404 -47 415 -58 l 300 57 q 289 94 289 68 q 325 201 289 144 l 461 417 l 325 632 q 289 740 289 692 q 300 776 289 763 l 404 881 q 442 892 415 892 q 549 856 492 892 l 764 719 l 979 856 q 1088 892 1039 892 q 1124 881 1113 892 l 1228 776 q 1239 739 1239 765 q 1203 632 1239 689 l 1067 417 l 1203 201 q 1239 93 1239 142 q 1228 57 1239 67 l 1124 -47 z "},"H":{"ha":1528,"x_min":69,"x_max":1458,"o":"m 1256 908 q 1028 1059 1156 1007 q 764 1111 900 1111 q 500 1060 626 1111 q 274 909 374 1010 q 122 681 174 808 q 69 417 69 553 q 120 153 69 279 q 272 -75 171 26 q 499 -227 374 -176 q 764 -278 625 -278 q 1027 -227 900 -278 q 1256 -75 1154 -176 q 1408 152 1357 26 q 1458 417 1458 278 q 1408 680 1458 553 q 1256 908 1357 807 m 764 233 l 489 -149 l 542 194 l 199 142 l 581 417 l 199 692 l 542 639 l 489 982 l 764 600 l 1039 982 l 986 639 l 1329 692 l 947 417 l 1329 142 l 986 194 l 1039 -149 l 764 233 z "},"I":{"ha":1528,"x_min":69,"x_max":1457,"o":"m 1254 908 q 1027 1059 1156 1007 q 764 1111 899 1111 q 500 1060 626 1111 q 274 909 374 1010 q 122 681 174 808 q 69 417 69 553 q 120 153 69 279 q 272 -74 171 28 q 499 -226 374 -175 q 764 -276 625 -276 q 1027 -226 900 -276 q 1254 -75 1154 -175 q 1406 152 1354 25 q 1457 417 1457 279 q 1406 680 1457 553 q 1254 908 1356 807 m 1015 -31 q 974 68 974 11 q 1016 166 974 125 q 1114 207 1058 207 q 1211 167 1171 207 q 1251 69 1251 126 q 1210 -29 1251 13 q 1111 -71 1169 -71 q 1015 -31 1056 -71 m 763 221 l 607 -28 l 604 258 l 318 261 l 567 418 l 318 574 l 604 576 l 607 863 l 764 614 l 918 861 l 922 576 l 1207 572 l 961 417 l 1207 263 l 922 260 l 918 -26 l 763 221 m 317 -29 q 275 71 275 13 q 317 167 275 126 q 414 207 358 207 q 513 167 472 207 q 553 68 553 126 q 513 -31 553 8 q 415 -71 472 -71 q 317 -29 358 -71 m 1015 669 q 974 768 974 711 q 1015 865 974 825 q 1113 906 1056 906 q 1210 864 1169 906 q 1251 765 1251 824 q 1211 669 1251 710 q 1114 628 1171 628 q 1015 669 1057 628 m 315 669 q 275 767 275 710 q 317 865 275 824 q 417 906 358 906 q 513 865 472 906 q 553 767 553 825 q 512 668 553 708 q 414 628 471 628 q 315 669 357 628 z "},"J":{"ha":1528,"x_min":69,"x_max":1458,"o":"m 1458 417 q 1255 908 1458 704 q 764 1111 1051 1111 q 273 908 476 1111 q 69 417 69 704 q 273 -74 69 129 q 764 -278 476 -278 q 1255 -74 1051 -278 q 1458 417 1458 129 m 668 185 l 421 -119 l 531 185 l 228 74 l 532 321 l 143 281 l 435 417 l 143 553 l 532 513 l 228 760 l 532 650 l 421 953 l 668 649 l 628 1038 l 764 746 l 900 1038 l 860 649 l 1107 953 l 997 649 l 1300 760 l 996 513 l 1385 553 l 1093 417 l 1385 281 l 996 321 l 1300 74 l 996 183 l 1107 -119 l 860 185 l 900 -204 l 764 88 l 628 -204 l 668 185 m 946 417 q 893 546 946 493 q 764 599 840 599 q 635 546 688 599 q 582 417 582 493 q 635 288 582 340 q 764 235 688 235 q 893 288 840 235 q 946 417 946 340 z "},"K":{"ha":1528,"x_min":69,"x_max":1458,"o":"m 1458 417 q 1255 908 1458 704 q 764 1111 1051 1111 q 273 908 476 1111 q 69 417 69 704 q 273 -74 69 129 q 764 -278 476 -278 q 1255 -74 1051 -278 q 1458 417 1458 129 m 614 -43 q 660 69 614 24 q 771 115 706 115 q 883 69 838 115 q 929 -43 929 24 q 883 -156 929 -110 q 771 -201 838 -201 q 660 -156 706 -201 q 614 -43 614 -110 m 915 117 q 883 192 883 149 l 886 203 l 771 243 l 642 199 l 644 192 q 613 117 644 149 q 539 86 582 86 q 464 117 494 86 q 433 192 433 147 q 465 266 433 235 q 538 297 496 297 q 578 289 558 297 l 588 282 l 622 417 l 588 551 l 578 544 q 555 539 569 540 q 539 538 540 538 q 464 567 494 538 q 433 642 433 597 q 464 717 433 686 q 539 747 494 747 q 614 716 583 747 q 644 642 644 685 l 643 635 l 771 592 l 886 631 l 883 642 q 915 716 883 685 q 989 747 946 747 q 1065 716 1033 747 q 1096 642 1096 685 q 1065 567 1096 597 q 989 538 1033 538 l 953 544 l 921 417 l 953 289 l 989 297 q 1064 265 1032 297 q 1096 192 1096 233 q 1065 117 1096 149 q 989 86 1033 86 q 915 117 946 86 m 146 417 q 192 529 146 483 q 304 575 238 575 q 417 529 371 575 q 463 417 463 483 q 417 304 463 350 q 304 258 371 258 q 192 304 238 258 q 146 417 146 350 m 1065 417 q 1111 529 1065 483 q 1224 575 1157 575 q 1336 529 1290 575 q 1382 417 1382 483 q 1336 304 1382 350 q 1224 258 1290 258 q 1111 304 1157 258 q 1065 417 1065 350 m 614 876 q 660 989 614 943 q 771 1035 706 1035 q 883 989 838 1035 q 929 876 929 943 q 883 764 929 810 q 771 718 838 718 q 660 764 706 718 q 614 876 614 810 z "},"L":{"ha":1528,"x_min":69,"x_max":1458,"o":"m 1256 908 q 1028 1059 1156 1007 q 764 1111 900 1111 q 500 1060 626 1111 q 274 909 374 1010 q 122 681 174 808 q 69 417 69 553 q 120 153 69 279 q 272 -75 171 26 q 499 -227 374 -176 q 764 -278 625 -278 q 1027 -227 900 -278 q 1256 -75 1154 -176 q 1408 152 1357 26 q 1458 417 1458 278 q 1408 680 1458 553 q 1256 908 1357 807 m 1044 -64 q 1007 -82 1026 -82 q 964 -49 976 -82 l 789 354 q 783 378 783 365 q 804 397 783 397 q 826 392 815 397 l 1229 217 q 1263 174 1263 201 q 1244 136 1263 154 l 1044 -64 m 483 -64 l 282 136 q 265 174 265 156 q 297 217 265 201 l 701 392 q 725 397 714 397 q 744 376 744 397 q 739 354 744 365 l 564 -49 q 547 -72 558 -61 q 521 -82 535 -82 q 483 -64 501 -82 m 1229 617 l 826 442 q 803 436 815 436 q 783 456 783 436 q 789 479 783 467 l 964 882 q 1007 915 976 915 q 1044 897 1026 915 l 1244 697 q 1263 660 1263 679 q 1252 634 1263 646 q 1229 617 1242 622 m 701 442 l 297 617 q 265 660 265 632 q 282 697 265 678 l 483 897 q 521 915 501 915 q 564 882 549 915 l 739 479 q 744 456 744 467 q 739 442 744 446 q 724 436 735 436 q 701 442 713 436 z "},"M":{"ha":1528,"x_min":69,"x_max":1457,"o":"m 1254 908 q 1027 1059 1156 1007 q 764 1111 899 1111 q 500 1060 626 1111 q 274 909 374 1010 q 122 681 174 808 q 69 417 69 553 q 120 153 69 279 q 272 -74 171 28 q 499 -226 374 -175 q 764 -276 625 -276 q 1027 -226 900 -276 q 1254 -75 1154 -175 q 1406 152 1354 25 q 1457 417 1457 279 q 1406 680 1457 553 q 1254 908 1356 807 m 1192 -24 q 1132 -49 1168 -49 q 1072 -24 1097 -49 l 806 244 q 782 303 782 268 q 806 361 782 335 l 818 375 q 878 400 843 400 q 938 375 914 400 l 1204 108 q 1229 49 1229 83 q 1204 -11 1229 14 l 1192 -24 m 454 -24 q 394 -49 429 -49 q 335 -24 360 -49 l 322 -11 q 297 49 297 14 q 322 108 297 83 l 590 375 q 649 400 615 400 q 708 375 683 400 l 721 363 q 746 303 746 338 q 721 244 746 268 l 454 -24 m 938 460 q 878 436 915 436 q 818 461 843 436 l 807 472 q 782 533 782 497 q 806 592 782 568 l 1072 858 q 1133 883 1097 883 q 1193 858 1168 883 l 1204 847 q 1229 786 1229 822 q 1204 726 1229 751 l 938 460 m 707 460 q 649 436 685 436 q 590 460 614 436 l 322 726 q 297 786 297 751 q 322 846 297 821 l 335 858 q 394 883 360 883 q 454 858 429 883 l 721 592 q 746 532 746 567 q 721 472 746 497 l 707 460 z "},"N":{"ha":1528,"x_min":69,"x_max":1458,"o":"m 1256 908 q 1028 1059 1156 1007 q 764 1111 900 1111 q 500 1060 626 1111 q 274 909 374 1010 q 122 681 174 808 q 69 417 69 553 q 120 153 69 279 q 272 -75 171 26 q 499 -227 374 -176 q 764 -278 625 -278 q 1027 -227 900 -278 q 1256 -75 1154 -176 q 1408 152 1357 26 q 1458 417 1458 278 q 1408 680 1458 553 q 1256 908 1357 807 m 1171 -97 l 868 142 l 786 394 l 1039 313 l 1278 10 l 1171 -97 m 357 -97 l 250 10 l 489 313 l 742 394 l 660 142 l 357 -97 m 786 439 l 868 692 l 1171 931 l 1278 824 l 1039 521 l 786 439 m 489 521 l 250 824 l 357 931 l 660 692 l 742 439 l 489 521 z "},"O":{"ha":1528,"x_min":67,"x_max":1458,"o":"m 763 1113 q 270 909 474 1113 q 67 417 67 706 q 271 -74 67 131 q 763 -278 475 -278 q 1254 -75 1050 -278 q 1458 417 1458 128 q 1254 908 1458 704 q 763 1113 1050 1113 m 1153 -76 l 861 153 l 817 296 q 763 286 792 286 q 711 296 732 286 l 664 153 l 372 -76 l 269 26 l 499 317 l 642 364 q 633 389 636 375 q 631 417 631 403 q 640 468 631 449 l 499 517 l 269 808 l 372 910 l 663 681 l 708 538 q 763 549 732 549 q 814 539 793 549 l 863 681 l 1153 910 l 1256 808 l 1026 517 l 883 471 q 894 417 894 449 q 885 367 894 386 l 1026 317 l 1256 26 l 1153 -76 z "},"P":{"ha":1528,"x_min":61,"x_max":1450,"o":"m 1247 906 q 1019 1056 1147 1004 q 756 1108 892 1108 q 492 1058 618 1108 q 265 906 365 1007 q 113 678 165 806 q 61 414 61 550 q 112 151 61 276 q 264 -76 163 25 q 491 -228 365 -178 q 756 -279 617 -279 q 1019 -228 892 -279 q 1247 -78 1146 -178 q 1399 149 1347 22 q 1450 414 1450 276 q 1399 677 1450 550 q 1247 906 1349 804 m 1183 -28 q 1125 -51 1161 -51 q 1065 -26 1090 -51 l 797 240 q 774 300 774 267 q 797 358 774 332 l 811 371 q 872 396 836 396 q 929 372 906 396 l 1197 106 q 1222 44 1222 81 q 1197 -15 1222 10 l 1183 -28 m 756 -139 q 647 -94 692 -139 q 601 15 601 -49 q 647 124 601 79 q 756 169 692 169 q 865 124 819 169 q 910 15 910 79 q 865 -96 910 -49 q 756 -139 819 -139 m 1156 260 q 1047 305 1092 260 q 1001 414 1001 350 q 1047 523 1001 478 q 1156 568 1092 568 q 1265 523 1219 568 q 1310 414 1310 478 q 1266 305 1310 350 q 1156 260 1222 260 m 446 -26 q 386 -51 421 -51 q 326 -26 351 -51 l 315 -15 q 290 44 290 10 q 315 106 290 81 l 582 372 q 640 396 608 396 q 700 371 675 396 l 713 360 q 738 299 738 335 q 714 240 738 267 l 446 -26 m 929 457 q 871 432 906 432 q 811 457 836 432 l 799 469 q 774 531 774 494 q 797 589 774 563 l 1065 856 q 1125 881 1090 881 q 1185 856 1160 881 l 1197 843 q 1222 783 1222 818 q 1197 724 1222 749 l 929 457 m 700 457 q 640 432 675 432 q 582 457 607 432 l 315 724 q 290 785 290 749 q 314 843 290 817 l 326 856 q 386 881 351 881 q 446 856 421 881 l 714 589 q 732 562 726 576 q 738 529 738 547 q 713 469 738 494 l 700 457 m 356 260 q 247 306 293 260 q 201 414 201 351 q 247 523 201 478 q 356 568 292 568 q 465 523 419 568 q 510 414 510 478 q 464 306 510 349 q 356 260 418 260 m 756 660 q 647 705 692 660 q 601 814 601 750 q 647 923 601 878 q 756 968 692 968 q 865 923 819 968 q 910 814 910 878 q 898 755 910 783 q 865 706 886 726 q 756 660 817 660 z "},"Q":{"ha":1528,"x_min":69,"x_max":1458,"o":"m 1256 908 q 1028 1059 1156 1007 q 764 1111 900 1111 q 500 1060 626 1111 q 274 909 374 1010 q 122 681 174 808 q 69 417 69 553 q 120 153 69 279 q 272 -75 171 26 q 499 -227 374 -176 q 764 -278 625 -278 q 1027 -227 900 -278 q 1256 -75 1154 -176 q 1408 152 1357 26 q 1458 417 1458 278 q 1408 680 1458 553 q 1256 908 1357 807 m 1124 -47 q 1086 -58 1113 -58 q 979 -22 1036 -58 l 764 114 l 549 -22 q 440 -58 489 -58 q 404 -47 415 -58 l 300 57 q 289 94 289 68 q 325 201 289 144 l 461 417 l 325 632 q 289 740 289 692 q 300 776 289 763 l 404 881 q 442 892 415 892 q 549 856 492 892 l 764 719 l 979 856 q 1088 892 1039 892 q 1124 881 1113 892 l 1228 776 q 1239 739 1239 765 q 1203 632 1239 689 l 1067 417 l 1203 201 q 1239 93 1239 142 q 1228 57 1239 67 l 1124 -47 m 931 583 q 764 651 860 651 q 597 583 668 651 q 529 417 529 513 q 597 250 529 321 q 674 199 631 217 q 764 182 717 182 q 931 250 863 182 q 981 326 964 283 q 999 417 999 369 q 931 583 999 515 z "},"R":{"ha":1528,"x_min":69,"x_max":1458,"o":"m 1256 908 q 1028 1059 1156 1007 q 764 1111 900 1111 q 500 1060 626 1111 q 274 909 374 1010 q 122 681 174 808 q 69 417 69 553 q 120 153 69 279 q 272 -75 171 26 q 499 -227 374 -176 q 764 -278 625 -278 q 1027 -227 900 -278 q 1256 -75 1154 -176 q 1408 152 1357 26 q 1458 417 1458 278 q 1408 680 1458 553 q 1256 908 1357 807 m 967 46 l 789 53 l 888 189 l 821 360 l 992 293 l 1128 392 l 1135 214 l 1286 104 l 1119 61 l 1076 -106 l 967 46 m 561 46 l 451 -106 l 408 61 l 242 104 l 392 215 l 400 392 l 536 293 l 707 360 l 640 189 l 739 53 l 561 46 m 992 540 l 821 474 l 888 644 l 789 781 l 965 789 l 1076 939 l 1119 772 l 1286 729 l 1135 619 l 1128 442 l 992 540 m 536 540 l 400 442 l 393 619 l 242 729 l 408 772 l 451 939 l 561 788 l 739 781 l 640 644 l 707 474 l 536 540 z "},"S":{"ha":1528,"x_min":69,"x_max":1458,"o":"m 1256 908 q 1028 1059 1156 1007 q 764 1111 900 1111 q 500 1060 626 1111 q 274 909 374 1010 q 122 681 174 808 q 69 417 69 553 q 120 153 69 279 q 272 -75 171 26 q 499 -227 374 -176 q 764 -278 625 -278 q 1027 -227 900 -278 q 1256 -75 1154 -176 q 1408 152 1357 26 q 1458 417 1458 278 q 1408 680 1458 553 q 1256 908 1357 807 m 947 -139 l 829 -21 l 1201 351 l 1319 233 l 947 -139 m 581 -139 l 208 233 l 326 351 l 699 -21 l 581 -139 m 1201 482 l 829 854 l 947 972 l 1319 600 l 1201 482 m 611 264 q 549 417 549 326 q 611 569 549 504 q 764 632 676 632 q 917 568 854 632 q 979 417 979 504 q 917 264 979 326 q 764 201 854 201 q 611 264 676 201 m 326 482 l 208 600 l 581 972 l 699 854 l 326 482 z "},"T":{"ha":1528,"x_min":72,"x_max":1461,"o":"m 1257 910 q 1030 1060 1158 1008 q 767 1113 901 1113 q 503 1062 629 1113 q 276 910 376 1011 q 124 682 176 810 q 72 418 72 554 q 123 155 72 281 q 275 -72 174 29 q 502 -224 376 -174 q 767 -275 628 -275 q 1030 -224 903 -275 q 1257 -74 1157 -174 q 1409 155 1357 26 q 1461 418 1461 283 q 1410 682 1461 556 q 1257 910 1358 808 m 950 -136 l 832 -18 l 983 133 l 879 238 l 849 219 q 765 204 813 204 q 647 239 700 204 l 640 247 l 538 144 l 700 -18 l 583 -136 l 211 235 l 329 353 l 469 213 l 576 319 l 567 338 q 551 418 551 376 q 556 459 551 438 q 567 500 560 481 l 585 532 l 481 636 l 329 485 l 211 603 l 583 974 l 700 856 l 550 704 l 654 600 l 685 618 q 767 633 726 633 q 847 617 810 633 l 865 608 l 972 715 l 832 856 l 950 974 l 1321 603 l 1203 485 l 1040 647 l 939 546 l 946 538 q 982 419 982 482 q 965 338 982 378 l 949 306 l 1053 201 l 1203 353 l 1321 235 l 950 -136 m 868 519 q 767 563 825 563 q 666 520 708 563 q 624 418 624 478 q 665 317 624 360 q 767 275 707 275 q 868 317 826 275 q 910 418 910 360 q 868 519 910 478 z "},"U":{"ha":1528,"x_min":69,"x_max":1457,"o":"m 1254 907 q 1027 1058 1156 1006 q 764 1110 899 1110 q 500 1059 626 1110 q 274 908 374 1008 q 122 679 174 807 q 69 415 69 551 q 120 152 69 278 q 272 -75 171 26 q 499 -227 374 -176 q 764 -278 625 -278 q 1027 -227 900 -278 q 1254 -76 1154 -176 q 1406 151 1354 24 q 1457 415 1457 278 q 1406 678 1457 551 q 1254 907 1356 806 m 1017 11 q 985 89 985 43 q 1015 164 985 133 q 1092 194 1046 194 q 1168 163 1136 194 q 1200 88 1200 131 q 1168 11 1200 43 q 1092 -21 1136 -21 q 1017 11 1049 -21 m 942 157 l 763 336 l 585 158 l 504 239 l 682 417 l 504 594 l 585 675 l 763 497 l 942 675 l 1022 594 l 843 417 l 1022 238 l 942 157 m 358 11 q 328 88 328 42 q 358 163 328 132 q 435 194 389 194 q 511 164 481 194 q 542 89 542 133 q 510 13 542 46 q 433 -21 478 -21 q 358 11 390 -21 m 1015 668 q 985 744 985 699 q 1016 820 985 789 q 1092 851 1047 851 q 1169 820 1138 851 q 1200 746 1200 789 q 1167 669 1200 701 q 1089 638 1133 638 q 1015 668 1046 638 m 358 669 q 328 746 328 700 q 358 821 328 790 q 433 851 389 851 q 510 820 479 851 q 542 743 542 789 q 511 668 542 699 q 435 638 481 638 q 358 669 390 638 z "},"V":{"ha":1528,"x_min":69,"x_max":1458,"o":"m 1256 908 q 1028 1059 1156 1007 q 764 1111 900 1111 q 500 1060 626 1111 q 274 909 374 1010 q 122 681 174 808 q 69 417 69 553 q 120 153 69 279 q 272 -75 171 26 q 499 -227 374 -176 q 764 -278 625 -278 q 1027 -227 900 -278 q 1256 -75 1154 -176 q 1408 152 1357 26 q 1458 417 1458 278 q 1408 680 1458 553 q 1256 908 1357 807 m 953 50 l 997 94 l 849 244 l 836 238 q 801 226 819 231 q 764 222 783 222 q 728 226 749 222 q 690 238 708 231 l 679 244 l 531 94 l 575 50 l 288 -60 l 397 228 l 442 183 l 592 332 l 585 343 q 571 417 571 376 q 585 490 571 454 l 592 501 l 442 650 l 397 606 l 288 893 l 575 783 l 531 739 l 679 589 l 690 596 q 764 610 726 610 q 838 596 804 610 l 849 589 l 997 739 l 953 783 l 1240 893 l 1131 606 l 1086 650 l 936 501 l 943 490 q 958 417 958 451 q 954 381 958 400 q 943 344 950 361 l 936 332 l 1086 183 l 1131 228 l 1240 -60 l 953 50 z "},"W":{"ha":1528,"x_min":68,"x_max":1460,"o":"m 764 1113 q 272 908 476 1113 q 68 417 68 704 q 272 -75 68 129 q 764 -279 476 -279 q 1256 -75 1051 -279 q 1460 417 1460 129 q 1256 908 1460 704 q 764 1113 1051 1113 m 1265 360 q 1251 317 1265 340 q 1218 286 1236 294 l 1090 224 q 1044 214 1072 214 q 999 224 1017 214 l 869 286 q 836 317 850 296 q 822 360 822 338 l 822 474 q 836 517 822 496 q 869 547 850 538 l 999 610 q 1044 619 1021 619 q 1090 610 1068 619 l 1218 547 q 1251 516 1238 538 q 1265 474 1265 494 l 1265 360 m 985 -14 q 972 -56 985 -35 q 939 -87 958 -78 l 810 -150 q 764 -158 790 -158 q 718 -150 738 -158 l 589 -87 q 556 -56 569 -78 q 543 -14 543 -35 l 543 100 q 556 142 543 121 q 589 174 569 164 l 718 236 q 764 246 740 246 q 810 236 788 246 l 939 174 q 972 142 958 164 q 985 100 985 121 l 985 -14 m 985 733 q 972 691 985 713 q 939 660 958 669 l 810 597 q 764 588 792 588 q 718 597 736 588 l 589 660 q 556 691 569 669 q 543 733 543 713 l 543 847 q 556 890 543 868 q 589 921 569 911 l 718 983 q 764 992 738 992 q 810 983 790 992 l 939 921 q 972 890 958 911 q 985 847 985 868 l 985 733 m 706 360 q 692 317 706 338 q 658 286 678 296 l 529 224 q 483 214 511 214 q 438 224 456 214 l 310 286 q 276 317 290 296 q 263 360 263 339 l 263 474 q 277 516 263 493 q 310 547 292 539 l 438 610 q 483 619 460 619 q 529 610 507 619 l 658 547 q 692 517 678 538 q 706 474 706 496 l 706 360 z "},"X":{"ha":1528,"x_min":67,"x_max":1456,"o":"m 1456 417 q 1252 -74 1456 129 q 761 -278 1049 -278 q 270 -74 474 -278 q 67 417 67 129 q 270 908 67 704 q 761 1111 474 1111 q 1252 908 1049 1111 q 1456 417 1456 704 m 1328 417 l 856 615 l 1044 990 l 661 613 l 478 990 l 567 413 l 194 417 l 667 217 l 478 -157 l 861 221 l 1044 -157 l 957 421 l 1328 417 m 901 417 q 860 317 901 358 q 761 276 819 276 q 662 317 703 276 q 621 417 621 358 q 662 516 621 475 q 761 557 703 557 q 860 516 819 557 q 901 417 901 475 z "},"Y":{"ha":1528,"x_min":69,"x_max":1458,"o":"m 1256 908 q 1028 1059 1156 1007 q 764 1111 900 1111 q 500 1060 626 1111 q 274 909 374 1010 q 122 681 174 808 q 69 417 69 553 q 120 153 69 279 q 272 -75 171 26 q 499 -227 374 -176 q 764 -278 625 -278 q 1027 -227 900 -278 q 1256 -75 1154 -176 q 1408 152 1357 26 q 1458 417 1458 278 q 1408 680 1458 553 q 1256 908 1357 807 m 1104 -68 l 881 157 l 819 40 q 775 7 803 7 q 729 40 750 7 l 658 167 l 424 -68 l 279 76 l 514 311 l 388 382 q 354 428 354 401 q 388 472 354 453 l 504 533 l 279 757 l 424 901 l 647 676 l 708 793 q 753 826 728 826 q 799 793 779 826 l 869 667 l 1104 901 l 1249 757 l 1014 522 l 1140 451 q 1174 406 1174 431 q 1140 361 1174 378 l 1024 300 l 1249 76 l 1104 -68 z "},"Z":{"ha":1528,"x_min":69,"x_max":1458,"o":"m 1458 417 q 1255 908 1458 704 q 764 1111 1051 1111 q 273 908 476 1111 q 69 417 69 704 q 273 -74 69 129 q 764 -278 476 -278 q 1255 -74 1051 -278 q 1458 417 1458 129 m 683 -174 l 683 168 l 629 168 l 403 -58 l 289 56 l 481 247 l 481 336 l 174 336 l 174 497 l 481 497 l 481 586 l 289 778 l 403 892 l 629 665 l 683 665 l 683 1007 l 844 1007 l 844 665 l 899 665 l 1125 892 l 1239 778 l 1047 586 l 1047 497 l 1354 497 l 1354 336 l 1047 336 l 1047 247 l 1239 56 l 1125 -58 l 899 168 l 844 168 l 844 -174 l 683 -174 z "},"a":{"ha":1528,"x_min":69,"x_max":1458,"o":"m 69 417 q 273 -74 69 129 q 764 -278 476 -278 q 1255 -74 1051 -278 q 1458 417 1458 129 q 1255 908 1458 704 q 764 1111 1051 1111 q 273 908 476 1111 q 69 417 69 704 z "},"b":{"ha":1528,"x_min":69,"x_max":1458,"o":"m 1458 417 q 1255 908 1458 704 q 764 1111 1051 1111 q 273 908 476 1111 q 69 417 69 704 q 273 -74 69 129 q 764 -278 476 -278 q 1255 -74 1051 -278 q 1458 417 1458 129 m 247 417 q 399 782 247 631 q 764 933 550 933 q 1129 782 978 933 q 1281 417 1281 631 q 1129 51 1281 203 q 764 -100 978 -100 q 399 51 550 -100 q 247 417 247 203 m 1111 417 q 1010 663 1111 561 q 764 764 908 764 q 518 663 619 764 q 417 417 417 561 q 518 171 417 272 q 764 69 619 69 q 1010 171 908 69 q 1111 417 1111 272 m 506 417 q 581 600 506 525 q 764 675 656 675 q 947 600 872 675 q 1022 417 1022 525 q 947 233 1022 308 q 764 158 872 158 q 581 233 656 158 q 506 417 506 308 z "},"c":{"ha":1528,"x_min":69,"x_max":1458,"o":"m 1458 417 q 1255 908 1458 704 q 764 1111 1051 1111 q 273 908 476 1111 q 69 417 69 704 q 273 -74 69 129 q 764 -278 476 -278 q 1255 -74 1051 -278 q 1458 417 1458 129 m 592 -132 l 764 367 l 936 -132 l 592 -132 m 215 589 l 714 417 l 215 244 l 215 589 m 814 417 l 1313 589 l 1313 244 l 814 417 m 592 965 l 936 965 l 764 467 l 592 965 z "},"d":{"ha":1528,"x_min":69,"x_max":1458,"o":"m 1458 417 q 1255 908 1458 704 q 764 1111 1051 1111 q 273 908 476 1111 q 69 417 69 704 q 273 -74 69 129 q 764 -278 476 -278 q 1255 -74 1051 -278 q 1458 417 1458 129 m 543 22 q 608 178 543 114 q 764 243 672 243 q 920 178 856 243 q 985 22 985 114 q 921 -135 985 -69 q 764 -200 857 -200 q 608 -135 674 -200 q 543 22 543 -69 m 147 417 q 213 572 147 507 q 369 638 278 638 q 525 574 460 638 q 590 417 590 510 q 525 261 590 326 q 369 196 460 196 q 213 260 278 196 q 147 417 147 324 m 938 417 q 1003 572 938 507 q 1158 638 1068 638 q 1315 574 1250 638 q 1381 417 1381 510 q 1315 261 1381 326 q 1158 196 1250 196 q 1003 260 1068 196 q 938 417 938 324 m 543 811 q 607 968 543 903 q 764 1033 671 1033 q 919 968 854 1033 q 985 811 985 903 q 921 656 985 721 q 764 590 857 590 q 608 656 674 590 q 543 811 543 721 z "},"e":{"ha":1528,"x_min":69,"x_max":1458,"o":"m 1256 908 q 1028 1059 1156 1007 q 764 1111 900 1111 q 500 1060 626 1111 q 274 909 374 1010 q 122 681 174 808 q 69 417 69 553 q 120 153 69 279 q 272 -75 171 26 q 499 -227 374 -176 q 764 -278 625 -278 q 1027 -227 900 -278 q 1256 -75 1154 -176 q 1408 152 1357 26 q 1458 417 1458 278 q 1408 680 1458 553 q 1256 908 1357 807 m 1118 288 q 932 327 1008 288 q 856 424 856 367 q 932 521 856 481 q 1118 561 1008 561 q 1303 521 1226 561 q 1379 424 1379 481 q 1349 358 1379 389 q 1118 288 1275 288 m 756 -199 q 660 -122 700 -199 q 619 63 619 -46 q 659 249 619 172 q 756 325 699 325 q 853 249 813 325 q 893 63 893 172 q 871 -84 893 -19 q 810 -179 849 -149 q 756 -199 783 -199 m 410 272 q 225 313 301 272 q 149 410 149 353 q 225 506 149 465 q 410 546 301 546 q 596 506 519 546 q 672 410 672 467 q 639 342 672 372 q 545 292 606 311 q 410 272 485 272 m 771 508 q 675 585 715 508 q 635 771 635 663 q 674 956 635 881 q 771 1032 714 1032 q 868 956 828 1032 q 908 771 908 879 q 889 635 908 696 q 839 542 869 575 q 771 508 808 508 z "},"f":{"ha":1528,"x_min":69,"x_max":1458,"o":"m 1458 417 q 1255 908 1458 704 q 764 1111 1051 1111 q 273 908 476 1111 q 69 417 69 704 q 273 -74 69 129 q 764 -278 476 -278 q 1255 -74 1051 -278 q 1458 417 1458 129 m 578 -122 l 578 231 l 950 231 l 950 -122 l 578 -122 m 225 231 l 225 603 l 578 603 l 578 231 l 225 231 m 950 231 l 950 603 l 1303 603 l 1303 231 l 950 231 m 578 603 l 578 956 l 950 956 l 950 603 l 578 603 z "},"g":{"ha":1528,"x_min":69,"x_max":1458,"o":"m 1458 417 q 1255 908 1458 704 q 764 1111 1051 1111 q 273 908 476 1111 q 69 417 69 704 q 273 -74 69 129 q 764 -278 476 -278 q 1255 -74 1051 -278 q 1458 417 1458 129 m 690 -165 q 642 -131 667 -165 q 606 -46 617 -96 l 550 203 l 301 258 q 217 294 251 269 q 182 343 182 319 l 182 490 q 217 539 182 514 q 301 575 251 564 l 550 631 l 606 879 q 642 964 617 929 q 690 999 667 999 l 838 999 q 886 964 861 999 q 922 879 911 929 l 978 631 l 1226 575 q 1311 539 1276 564 q 1346 490 1346 514 l 1346 343 q 1311 294 1346 319 q 1226 258 1276 269 l 978 203 l 922 -46 q 886 -131 911 -96 q 838 -165 861 -165 l 690 -165 z "},"h":{"ha":1528,"x_min":69,"x_max":1458,"o":"m 1458 417 q 1255 908 1458 704 q 764 1111 1051 1111 q 273 908 476 1111 q 69 417 69 704 q 273 -74 69 129 q 764 -278 476 -278 q 1255 -74 1051 -278 q 1458 417 1458 129 m 635 288 l 169 211 l 450 417 l 169 622 l 635 546 l 558 1011 l 764 731 l 969 1011 l 893 546 l 1358 622 l 1078 417 l 1358 211 l 893 288 l 969 -178 l 764 103 l 558 -178 l 635 288 z "},"i":{"ha":1528,"x_min":69,"x_max":1458,"o":"m 1458 417 q 1255 908 1458 704 q 764 1111 1051 1111 q 273 908 476 1111 q 69 417 69 704 q 273 -74 69 129 q 764 -278 476 -278 q 1255 -74 1051 -278 q 1458 417 1458 129 m 625 -78 q 665 21 625 -19 q 764 61 706 61 q 863 21 822 61 q 903 -78 903 -19 q 863 -175 903 -135 q 764 -215 822 -215 q 666 -176 707 -215 q 625 -78 625 -136 m 624 278 l 339 213 l 539 417 l 339 621 l 625 556 l 560 842 l 764 642 l 968 842 l 903 556 l 1188 621 l 988 417 l 1188 213 l 903 276 l 968 -7 l 764 193 l 560 -7 l 624 278 m 132 417 q 172 515 132 474 q 269 556 211 556 q 368 515 328 556 q 408 417 408 475 q 368 318 408 358 q 269 278 328 278 q 172 318 213 278 q 132 417 132 358 m 1119 417 q 1160 515 1119 475 q 1258 556 1200 556 q 1356 515 1315 556 q 1396 417 1396 475 q 1356 319 1396 360 q 1258 278 1317 278 q 1160 318 1200 278 q 1119 417 1119 358 m 625 911 q 665 1008 625 968 q 764 1049 706 1049 q 862 1009 821 1049 q 903 911 903 969 q 863 813 903 853 q 764 772 822 772 q 665 813 706 772 q 625 911 625 853 z "},"j":{"ha":1528,"x_min":69,"x_max":1458,"o":"m 1458 417 q 1255 908 1458 704 q 764 1111 1051 1111 q 273 908 476 1111 q 69 417 69 704 q 273 -74 69 129 q 764 -278 476 -278 q 1255 -74 1051 -278 q 1458 417 1458 129 m 668 185 l 421 -119 l 531 185 l 228 74 l 532 321 l 143 281 l 435 417 l 143 553 l 532 513 l 228 760 l 532 650 l 421 953 l 668 649 l 628 1038 l 764 746 l 900 1038 l 860 649 l 1107 953 l 997 649 l 1300 760 l 996 513 l 1385 553 l 1093 417 l 1385 281 l 996 321 l 1300 74 l 996 183 l 1107 -119 l 860 185 l 900 -204 l 764 88 l 628 -204 l 668 185 z "},"k":{"ha":1528,"x_min":69,"x_max":1458,"o":"m 1458 417 q 1255 908 1458 704 q 764 1111 1051 1111 q 273 908 476 1111 q 69 417 69 704 q 273 -74 69 129 q 764 -278 476 -278 q 1255 -74 1051 -278 q 1458 417 1458 129 m 614 13 q 660 125 614 79 q 771 171 706 171 q 883 125 838 171 q 929 13 929 79 q 883 -100 929 -54 q 771 -146 838 -146 q 660 -100 706 -146 q 614 13 614 -54 m 622 417 l 560 664 l 771 592 l 983 664 l 921 417 l 983 171 l 771 243 l 560 171 l 622 417 m 201 417 q 247 529 201 483 q 360 575 293 575 q 472 529 426 575 q 518 417 518 483 q 472 304 518 350 q 360 258 426 258 q 247 304 293 258 q 201 417 201 350 m 1010 417 q 1056 529 1010 483 q 1168 575 1101 575 q 1281 529 1235 575 q 1326 417 1326 483 q 1281 304 1326 350 q 1168 258 1235 258 q 1056 304 1101 258 q 1010 417 1010 350 m 614 821 q 660 933 614 888 q 771 979 706 979 q 883 933 838 979 q 929 821 929 888 q 883 708 929 754 q 771 663 838 663 q 660 708 706 663 q 614 821 614 754 z "},"l":{"ha":1528,"x_min":69,"x_max":1458,"o":"m 1458 417 q 1255 908 1458 704 q 764 1111 1051 1111 q 273 908 476 1111 q 69 417 69 704 q 273 -74 69 129 q 764 -278 476 -278 q 1255 -74 1051 -278 q 1458 417 1458 129 m 622 -122 q 571 -78 571 -122 q 576 -54 571 -71 l 738 354 q 764 382 749 382 q 790 354 779 382 l 951 -54 q 957 -78 957 -65 q 906 -122 957 -122 l 622 -122 m 225 275 l 225 558 q 269 610 225 610 q 293 604 276 610 l 701 443 q 729 417 729 433 q 701 390 729 400 l 293 229 q 267 224 281 224 q 225 275 225 224 m 1235 229 l 826 390 q 799 417 799 401 q 826 443 799 432 l 1235 604 q 1258 610 1246 610 q 1303 558 1303 610 l 1303 275 q 1292 238 1303 251 q 1261 224 1281 224 q 1235 229 1247 224 m 738 479 l 576 888 q 571 911 571 899 q 622 956 571 956 l 906 956 q 957 911 957 956 q 951 888 957 904 l 790 479 q 764 451 779 451 q 738 479 749 451 z "},"m":{"ha":1528,"x_min":69,"x_max":1458,"o":"m 1458 417 q 1255 908 1458 704 q 764 1111 1051 1111 q 273 908 476 1111 q 69 417 69 704 q 273 -74 69 129 q 764 -278 476 -278 q 1255 -74 1051 -278 q 1458 417 1458 129 m 754 -199 q 695 -174 719 -199 q 671 -114 671 -150 l 671 264 q 695 323 671 299 q 754 347 719 347 l 772 347 q 833 323 808 347 q 857 264 857 299 l 857 -114 q 833 -174 857 -150 q 772 -199 808 -199 l 754 -199 m 233 324 q 173 348 197 324 q 149 408 149 372 l 149 425 q 173 485 149 461 q 233 510 197 510 l 611 510 q 670 485 646 510 q 694 425 694 461 l 694 408 q 670 348 694 372 q 611 324 646 324 l 233 324 m 917 324 q 858 348 882 324 q 833 408 833 372 l 833 425 q 858 485 833 461 q 917 510 882 510 l 1294 510 q 1355 485 1331 510 q 1379 425 1379 461 l 1379 408 q 1355 348 1379 372 q 1294 324 1331 324 l 917 324 m 754 486 q 695 510 719 486 q 671 569 671 535 l 671 947 q 695 1008 671 983 q 754 1032 719 1032 l 772 1032 q 833 1008 808 1032 q 857 947 857 983 l 857 569 q 833 510 857 535 q 772 486 808 486 l 754 486 z "},"n":{"ha":1528,"x_min":69,"x_max":1458,"o":"m 1458 417 q 1255 908 1458 704 q 764 1111 1051 1111 q 273 908 476 1111 q 69 417 69 704 q 273 -74 69 129 q 764 -278 476 -278 q 1255 -74 1051 -278 q 1458 417 1458 129 m 689 -235 l 643 149 l 764 386 l 885 149 l 839 -235 l 689 -235 m 113 342 l 113 492 l 496 538 l 733 417 l 496 296 l 113 342 m 794 417 l 1032 538 l 1415 492 l 1415 342 l 1032 296 l 794 417 m 643 685 l 689 1068 l 839 1068 l 885 685 l 764 447 l 643 685 z "},"o":{"ha":1528,"x_min":69,"x_max":1458,"o":"m 1256 908 q 1028 1059 1156 1007 q 764 1111 900 1111 q 500 1060 626 1111 q 274 909 374 1010 q 122 681 174 808 q 69 417 69 553 q 120 153 69 279 q 272 -75 171 26 q 499 -227 374 -176 q 764 -278 625 -278 q 1027 -227 900 -278 q 1256 -75 1154 -176 q 1408 152 1357 26 q 1458 417 1458 278 q 1408 680 1458 553 q 1256 908 1357 807 m 692 -208 l 647 160 l 717 293 q 671 324 689 304 q 642 367 651 342 l 507 300 l 139 344 l 139 489 l 507 532 l 640 464 q 671 510 651 492 q 714 539 689 529 l 647 674 l 692 1042 l 836 1042 l 879 674 l 811 540 q 857 510 839 529 q 886 467 876 492 l 1021 532 l 1389 489 l 1389 344 l 1021 300 l 888 369 q 857 324 876 342 q 814 294 839 304 l 879 160 l 836 -208 l 692 -208 z "},"p":{"ha":1528,"x_min":69,"x_max":1458,"o":"m 1458 417 q 1255 908 1458 704 q 764 1111 1051 1111 q 273 908 476 1111 q 69 417 69 704 q 273 -74 69 129 q 764 -278 476 -278 q 1255 -74 1051 -278 q 1458 417 1458 129 m 754 -199 q 695 -174 719 -199 q 671 -114 671 -150 l 671 264 q 695 323 671 299 q 754 347 719 347 l 772 347 q 833 323 808 347 q 857 264 857 299 l 857 -114 q 833 -174 857 -150 q 772 -199 808 -199 l 754 -199 m 372 25 q 328 133 328 69 q 372 243 328 196 q 481 288 419 288 q 590 243 543 288 q 624 192 613 221 q 635 133 635 164 q 590 24 635 68 q 481 -21 544 -21 q 372 25 417 -21 m 938 25 q 893 133 893 69 q 938 243 893 196 q 1047 288 985 288 q 1156 243 1111 288 q 1189 192 1178 221 q 1200 133 1200 164 q 1155 24 1200 68 q 1047 -21 1110 -21 q 938 25 983 -21 m 233 324 q 173 348 197 324 q 149 408 149 372 l 149 425 q 173 485 149 461 q 233 510 197 510 l 611 510 q 670 485 646 510 q 694 425 694 461 l 694 408 q 670 348 694 372 q 611 324 646 324 l 233 324 m 917 324 q 858 348 882 324 q 833 408 833 372 l 833 425 q 858 485 833 461 q 917 510 882 510 l 1294 510 q 1355 485 1331 510 q 1379 425 1379 461 l 1379 408 q 1355 348 1379 372 q 1294 324 1331 324 l 917 324 m 754 486 q 695 510 719 486 q 671 569 671 535 l 671 947 q 695 1008 671 983 q 754 1032 719 1032 l 772 1032 q 833 1008 808 1032 q 857 947 857 983 l 857 569 q 833 510 857 535 q 772 486 808 486 l 754 486 m 372 590 q 328 699 328 635 q 372 808 328 761 q 481 853 419 853 q 589 808 543 853 q 635 699 635 764 q 589 590 635 633 q 481 546 543 546 q 372 590 417 546 m 938 590 q 893 699 893 635 q 938 808 893 761 q 1047 853 985 853 q 1156 808 1111 853 q 1200 699 1200 764 q 1154 590 1200 633 q 1047 546 1108 546 q 938 590 985 546 z "},"q":{"ha":1528,"x_min":69,"x_max":1458,"o":"m 1458 417 q 1255 908 1458 704 q 764 1111 1051 1111 q 273 908 476 1111 q 69 417 69 704 q 273 -74 69 129 q 764 -278 476 -278 q 1255 -74 1051 -278 q 1458 417 1458 129 m 690 -165 q 642 -131 667 -165 q 606 -46 617 -96 l 550 203 l 301 258 q 217 294 251 269 q 182 343 182 319 l 182 490 q 217 539 182 514 q 301 575 251 564 l 550 631 l 606 879 q 642 964 617 929 q 690 999 667 999 l 838 999 q 886 964 861 999 q 922 879 911 929 l 978 631 l 1226 575 q 1311 539 1276 564 q 1346 490 1346 514 l 1346 343 q 1311 294 1346 319 q 1226 258 1276 269 l 978 203 l 922 -46 q 886 -131 911 -96 q 838 -165 861 -165 l 690 -165 m 999 417 q 930 583 999 514 q 764 651 861 651 q 598 583 667 651 q 529 417 529 514 q 598 251 529 319 q 764 182 667 182 q 930 251 861 182 q 999 417 999 319 z "},"r":{"ha":1528,"x_min":69,"x_max":1458,"o":"m 1458 417 q 1255 908 1458 704 q 764 1111 1051 1111 q 273 908 476 1111 q 69 417 69 704 q 273 -74 69 129 q 764 -278 476 -278 q 1255 -74 1051 -278 q 1458 417 1458 129 m 644 11 l 524 142 l 690 168 l 764 336 l 838 168 l 1004 142 l 883 11 l 913 -174 l 764 -86 l 615 -174 l 644 11 m 358 297 l 174 268 l 261 417 l 174 565 l 358 538 l 489 657 l 515 490 l 683 417 l 515 343 l 489 176 l 358 297 m 1013 343 l 844 417 l 1013 490 l 1039 657 l 1169 538 l 1354 565 l 1267 417 l 1354 268 l 1169 297 l 1039 176 l 1013 343 m 690 665 l 524 692 l 644 822 l 615 1007 l 764 919 l 913 1007 l 883 822 l 1004 692 l 838 665 l 764 497 l 690 665 z "},"s":{"ha":1528,"x_min":69,"x_max":1458,"o":"m 1458 417 q 1255 908 1458 704 q 764 1111 1051 1111 q 273 908 476 1111 q 69 417 69 704 q 273 -74 69 129 q 764 -278 476 -278 q 1255 -74 1051 -278 q 1458 417 1458 129 m 501 -106 l 501 61 l 1026 61 l 1026 -106 l 501 -106 m 242 154 l 242 679 l 408 679 l 408 154 l 242 154 m 1119 154 l 1119 679 l 1286 679 l 1286 154 l 1119 154 m 549 417 q 612 569 549 506 q 764 632 675 632 q 916 569 853 632 q 979 417 979 506 q 916 265 979 328 q 764 201 853 201 q 612 265 675 201 q 549 417 549 328 m 501 772 l 501 939 l 1026 939 l 1026 772 l 501 772 z "},"t":{"ha":1528,"x_min":69,"x_max":1458,"o":"m 1458 417 q 1255 908 1458 704 q 764 1111 1051 1111 q 273 908 476 1111 q 69 417 69 704 q 273 -74 69 129 q 764 -278 476 -278 q 1255 -74 1051 -278 q 1458 417 1458 129 m 501 -106 l 501 61 l 715 61 l 715 208 l 681 218 q 598 280 632 239 q 553 374 564 321 l 553 385 l 408 385 l 408 154 l 242 154 l 242 679 l 408 679 l 408 481 l 560 481 l 565 500 q 681 615 600 581 l 715 625 l 715 772 l 501 772 l 501 939 l 1026 939 l 1026 772 l 813 772 l 813 625 l 847 615 q 961 500 929 581 l 968 481 l 1119 481 l 1119 679 l 1286 679 l 1286 154 l 1119 154 l 1119 385 l 975 385 l 975 374 q 930 280 964 321 q 847 218 896 239 l 813 208 l 813 61 l 1026 61 l 1026 -106 l 501 -106 m 907 417 q 865 518 907 476 q 764 560 824 560 q 663 518 704 560 q 621 417 621 476 q 663 315 621 357 q 764 274 704 274 q 865 315 824 274 q 907 417 907 357 z "},"u":{"ha":1528,"x_min":69,"x_max":1458,"o":"m 1458 417 q 1255 908 1458 704 q 764 1111 1051 1111 q 273 908 476 1111 q 69 417 69 704 q 273 -74 69 129 q 764 -278 476 -278 q 1255 -74 1051 -278 q 1458 417 1458 129 m 657 -49 q 688 28 657 -4 q 764 60 718 60 q 840 28 808 60 q 871 -49 871 -3 q 840 -125 871 -94 q 764 -156 810 -156 q 688 -125 718 -156 q 657 -49 657 -94 m 707 107 l 707 360 l 456 360 l 456 474 l 707 474 l 707 725 l 821 725 l 821 474 l 1074 474 l 1074 360 l 821 360 l 821 107 l 707 107 m 192 417 q 222 493 192 463 q 299 524 253 524 q 375 493 343 524 q 407 417 407 463 q 376 341 407 372 q 299 310 344 310 q 222 340 253 310 q 192 417 192 371 m 1121 417 q 1152 492 1121 461 q 1229 524 1183 524 q 1306 493 1275 524 q 1336 417 1336 463 q 1306 340 1336 371 q 1229 310 1275 310 q 1153 340 1185 310 q 1121 417 1121 371 m 657 882 q 688 958 657 928 q 764 989 718 989 q 840 958 810 989 q 871 882 871 928 q 840 806 871 838 q 764 774 810 774 q 688 805 719 774 q 657 882 657 836 z "},"v":{"ha":1528,"x_min":69,"x_max":1458,"o":"m 1458 417 q 1255 908 1458 704 q 764 1111 1051 1111 q 273 908 476 1111 q 69 417 69 704 q 273 -74 69 129 q 764 -278 476 -278 q 1255 -74 1051 -278 q 1458 417 1458 129 m 639 24 l 701 24 l 701 235 l 689 239 q 585 342 617 268 l 582 354 l 371 354 l 371 292 l 90 417 l 371 542 l 371 479 l 582 479 l 585 492 q 689 596 617 564 l 701 599 l 701 810 l 639 810 l 764 1090 l 889 810 l 826 810 l 826 599 l 839 596 q 943 492 911 564 l 946 479 l 1157 479 l 1157 542 l 1438 417 l 1157 292 l 1157 354 l 946 354 l 943 342 q 839 239 911 268 l 826 235 l 826 24 l 889 24 l 764 -257 l 639 24 z "},"w":{"ha":1528,"x_min":69,"x_max":1458,"o":"m 1458 417 q 1255 908 1458 704 q 764 1111 1051 1111 q 273 908 476 1111 q 69 417 69 704 q 273 -74 69 129 q 764 -278 476 -278 q 1255 -74 1051 -278 q 1458 417 1458 129 m 707 -85 q 665 -72 686 -85 q 633 -39 643 -58 l 571 90 q 561 136 561 113 q 571 182 561 160 l 633 311 q 665 344 643 331 q 707 357 686 357 l 821 357 q 863 344 842 357 q 894 311 885 331 l 957 182 q 967 136 967 164 q 957 90 967 108 l 894 -39 q 863 -72 885 -58 q 821 -85 842 -85 l 707 -85 m 333 196 q 291 209 313 196 q 260 242 269 222 l 197 371 q 188 417 188 393 q 197 463 188 440 l 260 592 q 291 624 269 611 q 333 638 313 638 l 447 638 q 490 624 468 638 q 521 592 511 611 l 583 463 q 593 417 593 444 q 583 371 593 389 l 521 242 q 490 209 511 222 q 447 196 468 196 l 333 196 m 1081 196 q 1038 209 1060 196 q 1007 242 1017 222 l 944 371 q 935 417 935 393 q 944 463 935 440 l 1007 592 q 1038 624 1017 611 q 1081 638 1060 638 l 1194 638 q 1237 624 1215 638 q 1268 592 1258 611 l 1331 463 q 1340 417 1340 444 q 1331 371 1340 389 l 1268 242 q 1237 209 1258 222 q 1194 196 1215 196 l 1081 196 m 707 476 q 665 490 686 476 q 633 522 643 503 l 571 651 q 561 697 561 674 q 571 743 561 721 l 633 872 q 665 905 643 892 q 707 918 686 918 l 821 918 q 863 905 842 918 q 894 872 885 892 l 957 743 q 967 697 967 725 q 957 651 967 669 l 894 522 q 863 490 885 503 q 821 476 842 476 l 707 476 z "},"x":{"ha":1528,"x_min":69,"x_max":1458,"o":"m 1458 417 q 1255 908 1458 704 q 764 1111 1051 1111 q 273 908 476 1111 q 69 417 69 704 q 273 -74 69 129 q 764 -278 476 -278 q 1255 -74 1051 -278 q 1458 417 1458 129 m 568 421 l 197 417 l 669 615 l 481 990 l 864 613 l 1047 990 l 958 413 l 1331 417 l 858 217 l 1047 -157 l 664 221 l 481 -157 l 568 421 m 904 417 q 863 516 904 475 q 764 557 822 557 q 665 516 706 557 q 624 417 624 475 q 665 317 624 358 q 764 276 706 276 q 863 317 822 276 q 904 417 904 358 z "},"y":{"ha":1528,"x_min":69,"x_max":1458,"o":"m 1458 417 q 1255 908 1458 704 q 764 1111 1051 1111 q 273 908 476 1111 q 69 417 69 704 q 273 -74 69 129 q 764 -278 476 -278 q 1255 -74 1051 -278 q 1458 417 1458 129 m 663 -167 l 663 150 l 538 111 q 513 107 525 107 q 471 151 471 107 q 474 175 471 167 l 513 315 l 181 315 l 181 518 l 513 518 l 474 658 q 471 682 471 667 q 514 726 471 726 q 538 722 525 726 l 663 683 l 663 1000 l 865 1000 l 865 683 l 990 722 q 1015 726 1003 726 q 1057 682 1057 726 q 1054 658 1057 667 l 1015 518 l 1347 518 l 1347 315 l 1015 315 l 1054 175 q 1057 151 1057 167 q 1014 107 1057 107 q 990 111 1003 107 l 865 150 l 865 -167 l 663 -167 z "},"z":{"ha":1528,"x_min":69,"x_max":1458,"o":"m 1458 417 q 1255 908 1458 704 q 764 1111 1051 1111 q 273 908 476 1111 q 69 417 69 704 q 273 -74 69 129 q 764 -278 476 -278 q 1255 -74 1051 -278 q 1458 417 1458 129 m 683 -174 l 683 224 l 403 -58 l 289 56 l 571 336 l 174 336 l 174 497 l 571 497 l 289 778 l 403 892 l 683 610 l 683 1007 l 844 1007 l 844 610 l 1125 892 l 1239 778 l 957 497 l 1354 497 l 1354 336 l 957 336 l 1239 56 l 1125 -58 l 844 224 l 844 -174 l 683 -174 z "}}}
